PathFileType	4	(X/Y/Z)	/Users/itak/Documents/Research/Walk-IL/dataset/trc/00325_00011.trc
DataRate	CameraRate	NumFrames	NumMarkers	Units	OrigDataRate	OrigDataStartFrame	OrigNumFrames
100.000000	100.000000	4	54	mm	100.000000	270	433
Frame#	Time	RPSI			LPSI			L3			STRN			T10			C7			CLAV			RBAK			LBAK			LSHO			LUPA			LAEL			LAOL			LWPS			LFRA			LIFD			LHPS			LHTS			RSHO			RUPA			RAEL			RAOL			RWTS			RWPS			RFRA			RIFD			RHTS			RHPS			RBHD			LFHD			RFHD			LBHD			LHIP			RHIP			RASI			LASI			LKNE			LTHI			LANK			LTIP			LTOE			LMT1			LMT5			LHEE			RKNE			RANK			RTIP			RTOE			RMT1			RMT5			RHEE			LWTS			RTHI			*53			
		X1	Y1	Z1	X2	Y2	Z2	X3	Y3	Z3	X4	Y4	Z4	X5	Y5	Z5	X6	Y6	Z6	X7	Y7	Z7	X8	Y8	Z8	X9	Y9	Z9	X10	Y10	Z10	X11	Y11	Z11	X12	Y12	Z12	X13	Y13	Z13	X14	Y14	Z14	X15	Y15	Z15	X16	Y16	Z16	X17	Y17	Z17	X18	Y18	Z18	X19	Y19	Z19	X20	Y20	Z20	X21	Y21	Z21	X22	Y22	Z22	X23	Y23	Z23	X24	Y24	Z24	X25	Y25	Z25	X26	Y26	Z26	X27	Y27	Z27	X28	Y28	Z28	X29	Y29	Z29	X30	Y30	Z30	X31	Y31	Z31	X32	Y32	Z32	X33	Y33	Z33	X34	Y34	Z34	X35	Y35	Z35	X36	Y36	Z36	X37	Y37	Z37	X38	Y38	Z38	X39	Y39	Z39	X40	Y40	Z40	X41	Y41	Z41	X42	Y42	Z42	X43	Y43	Z43	X44	Y44	Z44	X45	Y45	Z45	X46	Y46	Z46	X47	Y47	Z47	X48	Y48	Z48	X49	Y49	Z49	X50	Y50	Z50	X51	Y51	Z51	X52	Y52	Z52	X53	Y53	Z53	X54	Y54	Z54	

271	2.7	-46.09434127807617	957.3822021484375	168.142578125	-50.42827606201172	952.82861328125	39.12235260009766	-54.0588264465332	1014.620300292969	115.9976501464844	171.0778656005859	1207.376220703125	76.09285736083984	-71.08103179931641	1134.743896484375	116.2135162353516	-33.58452987670898	1382.41748046875	89.88806915283203	122.584358215332	1330.427856445312	74.50660705566406	-64.86153411865234	1243.782470703125	170.0671844482422	-57.65285491943359	1344.433959960938	-6.119453430175781	17.44597434997559	1360.703125	-75.55503082275391	-37.1735954284668	1249.943359375	-131.8114013671875	-88.54753875732422	1054.491333007812	-128.9557037353516	-123.7937927246094	1058.583740234375	-52.94123077392578	-154.4797515869141	805.8864135742188	-150.26513671875	-119.0115966796875	955.903564453125	-137.9025421142578	-179.4913330078125	647.6240844726562	-99.29157257080078	-191.6781921386719	746.34326171875	-140.1054382324219	-139.3295593261719	714.3585815429688	-123.2584228515625	45.49372100830078	1378.377807617188	242.8737182617188	54.82100296020508	1318.157592773438	310.8560791015625	165.0308380126953	1080.28369140625	376.0894470214844	118.6443405151367	1040.391235351562	302.059326171875	366.259765625	936.04833984375	316.8144226074219	355.5010070800781	911.6210327148438	388.3580627441406	220.1535491943359	1033.3212890625	384.6756286621094	478.0651550292969	804.2544555664062	326.9593200683594	448.1448364257812	870.25048828125	327.9769287109375	413.9407043457031	850.4766235351562	384.4231262207031	4.286657810211182	1578.248901367188	169.5553741455078	157.2506866455078	1617.076538085938	32.56180953979492	158.9984588623047	1613.452026367188	133.8560333251953	-24.93700790405273	1574.2021484375	27.54583930969238	37.6815071105957	901.6229248046875	-64.08380126953125	34.10695648193359	905.2160034179688	277.7798461914062	138.2951507568359	935.839111328125	236.1941528320312	154.7906341552734	939.5237426757812	-3.003954648971558	255.8781280517578	482.088623046875	-39.38375854492188	200.3212890625	609.2127685546875	-58.96284866333008	270.8406066894531	45.21348190307617	-19.56014251708984	266.2813110351562	260.0730285644531	-45.32563781738281	476.6323852539062	91.1763916015625	6.411649703979492	420.0771179199219	68.04847717285156	59.22939300537109	390.5099182128906	62.86452865600586	-50.50580215454102	248.5491790771484	41.0291862487793	52.6597785949707	32.45860290527344	444.9041442871094	228.8612976074219	-117.3005294799805	55.68830871582031	178.2253570556641	15.52140045166016	323.7319946289062	208.2138214111328	71.84551239013672	37.60869598388672	118.9990921020508	13.51851177215576	33.79093551635742	78.99642181396484	-19.40479278564453	36.55569458007812	191.5092620849609	-168.3779602050781	63.0076789855957	131.6733093261719	-100.9582443237305	786.9987182617188	-110.5362854003906	95.32138824462891	697.129638671875	267.9750366210938	nan	nan	nan	
272	2.71	-36.47483825683594	956.2850952148438	166.301513671875	-39.50380325317383	951.5136108398438	37.31103515625	-43.92161560058594	1013.029235839844	114.3801345825195	181.2268218994141	1205.556884765625	75.88495635986328	-61.35895156860352	1133.047485351562	115.2899551391602	-23.49384880065918	1380.6552734375	89.34597015380859	132.7499389648438	1328.606567382812	74.28469848632812	-55.29272079467773	1242.071655273438	169.3440246582031	-47.29291534423828	1342.824584960938	-6.69674825668335	27.88904190063477	1359.0546875	-75.98903656005859	-27.61162948608398	1248.982177734375	-132.2009429931641	-81.09471893310547	1054.091796875	-128.9290618896484	-116.140022277832	1058.736938476562	-52.87590026855469	-150.0496978759766	806.2518920898438	-149.8463745117188	-112.6925506591797	955.9127807617188	-137.7375030517578	-177.6572723388672	648.6076049804688	-98.03430938720703	-188.1820831298828	747.2977294921875	-139.4452972412109	-135.8702087402344	714.9833984375	-122.6134872436523	55.27600479125977	1376.397094726562	242.5628814697266	64.55585479736328	1316.063842773438	310.4425659179688	175.9928131103516	1078.627685546875	375.3135375976562	130.3922119140625	1038.5947265625	300.8920288085938	379.8052062988281	938.621337890625	315.8917236328125	369.1772766113281	913.1585693359375	387.0213317871094	231.6162109375	1032.371826171875	384.0435791015625	494.4832458496094	809.20849609375	325.221923828125	462.9723205566406	874.4256591796875	326.8077697753906	428.9134826660156	853.3192138671875	382.7557067871094	14.00440883636475	1576.254028320312	168.9585571289062	167.1561889648438	1615.564086914062	32.20985412597656	168.7572784423828	1611.972412109375	133.504150390625	-14.87123012542725	1572.130859375	26.94962501525879	49.63441848754883	899.9366455078125	-65.19334411621094	42.55536270141602	904.0968017578125	276.7716979980469	147.2089233398438	934.2533569335938	236.2268981933594	166.0408325195312	937.4727783203125	-2.889522075653076	264.9833374023438	478.5472717285156	-39.20098495483398	208.1153869628906	605.4389038085938	-59.45990371704102	302.2704467773438	43.89772415161133	-18.7864933013916	286.1883239746094	258.6023559570312	-44.91364669799805	505.1946411132812	100.3700180053711	10.02846145629883	449.0837707519531	74.70026397705078	61.97313690185547	421.4629516601562	67.47601318359375	-48.11579895019531	279.0704650878906	38.92996978759766	53.14141845703125	37.24183654785156	444.2129516601562	229.3876495361328	-117.0277328491211	56.49823379516602	177.9405364990234	19.07833862304688	323.0825805664062	208.3631134033203	71.96324157714844	37.59527969360352	119.0748062133789	13.85132122039795	33.97042465209961	79.04217529296875	-19.19039916992188	36.64130401611328	191.3069763183594	-167.9714050292969	64.41604614257812	131.3523254394531	-96.60546875	786.9174194335938	-110.1184158325195	101.9706115722656	695.903564453125	268.1373901367188	nan	nan	nan	
273	2.72	-26.78072166442871	955.111328125	164.4023132324219	-28.45383071899414	950.1067504882812	35.43659591674805	-33.65319061279297	1011.376403808594	112.6885070800781	191.4499969482422	1203.711059570312	75.64378356933594	-51.44889068603516	1131.256225585938	114.2419128417969	-13.36201858520508	1378.837524414062	88.71829223632812	142.9635009765625	1326.755493164062	74.01859283447266	-45.68413925170898	1240.290405273438	168.4974365234375	-36.87923812866211	1341.144897460938	-7.356753826141357	38.39850997924805	1357.34326171875	-76.49319458007812	-17.947998046875	1247.940551757812	-132.6321411132812	-73.40632629394531	1053.595092773438	-128.9985046386719	-108.324089050293	1058.759521484375	-52.91092300415039	-144.9658813476562	806.3914184570312	-149.4698028564453	-106.0090026855469	955.7499389648438	-137.6603851318359	-174.6553192138672	649.3291015625	-96.88201141357422	-183.8349609375	747.934326171875	-138.8147583007812	-131.5806579589844	715.3923950195312	-122.0014266967773	65.02211761474609	1374.359619140625	242.1851043701172	74.21640777587891	1313.877685546875	309.958251953125	186.697998046875	1076.80419921875	374.4123840332031	141.8266143798828	1036.693237304688	299.6153869628906	392.8755493164062	940.8111572265625	314.8904113769531	382.3688354492188	914.3389892578125	385.6268005371094	242.7618408203125	1031.186767578125	383.3281860351562	510.1346435546875	813.6046142578125	323.5116271972656	477.2169799804688	878.184814453125	325.557373046875	443.303466796875	855.7783203125	381.0560913085938	23.75404167175293	1574.254760742188	168.2973937988281	177.1002807617188	1614.031127929688	31.81850242614746	178.5513000488281	1610.47998046875	133.1090087890625	-4.769815444946289	1570.053833007812	26.28588104248047	61.6578254699707	898.121337890625	-66.32837677001953	51.06181716918945	902.9468383789062	275.7208862304688	156.1532440185547	932.6281127929688	236.281005859375	177.3853302001953	935.3209838867188	-2.787277698516846	274.2446594238281	475.1050415039062	-39.06591796875	216.18505859375	601.5995483398438	-60.07060241699219	331.4524841308594	43.37785720825195	-17.77610015869141	305.0450744628906	257.5324096679688	-44.40560913085938	531.3474731445312	109.2993927001953	13.7977180480957	475.6874694824219	81.40525054931641	64.86935424804688	450.0516357421875	72.29326629638672	-45.54710006713867	307.3730773925781	37.73406982421875	53.85373687744141	42.23911285400391	443.5343627929688	229.8519744873047	-116.6973342895508	57.44469833374023	177.7078247070312	22.80512428283691	322.4598083496094	208.5076446533203	72.09838104248047	37.585693359375	119.1588821411133	14.19994068145752	34.16464614868164	79.09767150878906	-18.96879196166992	36.75093841552734	191.1583099365234	-167.5091552734375	66.01751708984375	131.0812225341797	-91.63199615478516	786.6791381835938	-109.7329711914062	108.7127532958984	694.6697998046875	268.2405395507812	nan	nan	nan	
274	2.73	-17.01629447937012	953.8701782226562	162.4535827636719	-17.30993843078613	948.6197509765625	33.51229095458984	-23.26002883911133	1009.696716308594	110.9295425415039	201.7433624267578	1201.8564453125	75.38701629638672	-41.35177993774414	1129.406372070312	113.0600662231445	-3.180919885635376	1377.000244140625	87.99653625488281	153.2323608398438	1324.898193359375	73.70694732666016	-36.01181030273438	1238.47021484375	167.5268859863281	-26.40617752075195	1339.423583984375	-8.10670280456543	48.98659515380859	1355.588500976562	-77.07022094726562	-8.168267250061035	1246.8251953125	-133.1103515625	-65.46428680419922	1053.0078125	-129.1665649414062	-100.3237380981445	1058.650756835938	-53.05446624755859	-139.2291717529297	806.3095703125	-149.1439666748047	-98.95621490478516	955.41845703125	-137.6710205078125	-170.4981384277344	649.7669067382812	-95.85509490966797	-178.6433868408203	748.251708984375	-138.2214050292969	-126.4722061157227	715.56201171875	-121.4452056884766	74.73829650878906	1372.30126953125	241.7341766357422	83.80657196044922	1311.631958007812	309.3995361328125	197.1425933837891	1074.841552734375	373.3841552734375	152.9510955810547	1034.711791992188	298.2303161621094	405.4754333496094	942.61474609375	313.8032836914062	395.0665283203125	915.1609497070312	384.181884765625	253.5927581787109	1029.790649414062	382.5185852050781	525.0059204101562	817.4110107421875	321.8142700195312	490.8859558105469	881.5133056640625	324.2311706542969	457.1002502441406	857.833984375	379.3269958496094	33.55041122436523	1572.28515625	167.5711059570312	187.0879211425781	1612.4970703125	31.38780975341797	188.380126953125	1608.996459960938	132.6750640869141	5.366168022155762	1567.999145507812	25.55098915100098	73.75022125244141	896.2470703125	-67.5179443359375	59.64243316650391	901.7607421875	274.61767578125	165.1444702148438	930.975341796875	236.3385620117188	188.7885894775391	933.1238403320312	-2.704040288925171	283.7364196777344	471.9002990722656	-38.91983795166016	224.7463989257812	597.8782958984375	-60.7017707824707	357.9958190917969	43.36686325073242	-16.5712776184082	322.7095031738281	256.7403259277344	-43.80755615234375	554.9285888671875	117.4205093383789	17.52948379516602	499.7115478515625	87.69114685058594	67.77873992919922	475.9625854492188	76.87721252441406	-42.93172836303711	333.1075134277344	37.17225646972656	54.77112579345703	47.48827362060547	442.8725891113281	230.2528381347656	-116.2964324951172	58.55075454711914	177.5536804199219	26.70796585083008	321.8704528808594	208.6422271728516	72.24681854248047	37.57986831665039	119.2467498779297	14.54383373260498	34.36958694458008	79.16156005859375	-18.73068618774414	36.88972473144531	191.0848541259766	-166.9931945800781	67.82906341552734	130.8975219726562	-86.04389190673828	786.2705688476562	-109.3893966674805	115.5977554321289	693.4396362304688	268.2802429199219	nan	nan	nan	
